<svg width="451" height="457" viewBox="0 0 451 457" fill="none" xmlns="http://www.w3.org/2000/svg">
<g opacity="0.07">
<path d="M202.225 396.488C309.514 396.488 396.488 309.513 396.488 202.225C396.488 94.9361 309.514 7.96161 202.225 7.96161C94.937 7.96161 7.96246 94.9361 7.96246 202.225C7.96246 309.513 94.937 396.488 202.225 396.488Z" fill="#CBDFFA"/>
<path d="M202.226 7.96161C193.834 7.96161 185.566 8.49355 177.454 9.52585C273.045 21.6916 346.946 103.328 346.946 202.224C346.946 301.12 273.045 382.756 177.454 394.922C185.566 395.955 193.834 396.487 202.226 396.487C309.514 396.487 396.489 309.512 396.489 202.224C396.489 94.9358 309.514 7.96161 202.226 7.96161Z" fill="white"/>
<path d="M455.294 296.442H246.336C238.577 296.442 232.288 290.152 232.288 282.393V234.163C232.288 226.404 238.577 220.115 246.336 220.115H455.294C463.052 220.115 469.342 226.404 469.342 234.163V282.393C469.342 290.152 463.052 296.442 455.294 296.442Z" fill="#CBDFFA"/>
<path d="M455.308 220.128H419.896V263.616C419.896 271.375 413.607 277.664 405.848 277.664H232.302V282.407C232.302 290.166 238.592 296.455 246.351 296.455H455.308C463.067 296.455 469.357 290.166 469.357 282.407V234.177C469.356 226.418 463.067 220.128 455.308 220.128Z" fill="#99C4FD"/>
<path d="M455.294 372.769H246.336C238.577 372.769 232.288 366.48 232.288 358.721V310.49C232.288 302.731 238.577 296.442 246.336 296.442H455.294C463.052 296.442 469.342 302.731 469.342 310.49V358.721C469.342 366.48 463.052 372.769 455.294 372.769Z" fill="#CBDFFA"/>
<path d="M455.294 296.442H419.883V339.929C419.883 347.688 413.593 353.978 405.834 353.978H232.289V358.721C232.289 366.48 238.578 372.769 246.337 372.769H455.295C463.054 372.769 469.343 366.48 469.343 358.721V310.49C469.342 302.732 463.053 296.442 455.294 296.442Z" fill="#99C4FD"/>
<path d="M455.294 449.096H246.336C238.577 449.096 232.288 442.807 232.288 435.048V386.818C232.288 379.059 238.577 372.769 246.336 372.769H455.294C463.052 372.769 469.342 379.059 469.342 386.818V435.048C469.342 442.807 463.052 449.096 455.294 449.096Z" fill="#CBDFFA"/>
<path d="M455.294 372.769H419.883V416.257C419.883 424.016 413.593 430.305 405.834 430.305H232.289V435.048C232.289 442.807 238.578 449.096 246.337 449.096H455.295C463.054 449.096 469.343 442.807 469.343 435.048V386.818C469.342 379.059 463.053 372.769 455.294 372.769Z" fill="#99C4FD"/>
<path d="M269.828 266.273C275.504 266.273 280.105 261.672 280.105 255.996C280.105 250.321 275.504 245.72 269.828 245.72C264.152 245.72 259.551 250.321 259.551 255.996C259.551 261.672 264.152 266.273 269.828 266.273Z" fill="white"/>
<path d="M310.48 266.273C316.156 266.273 320.757 261.672 320.757 255.996C320.757 250.321 316.156 245.72 310.48 245.72C304.804 245.72 300.203 250.321 300.203 255.996C300.203 261.672 304.804 266.273 310.48 266.273Z" fill="white"/>
<path d="M269.828 344.882C275.504 344.882 280.105 340.281 280.105 334.605C280.105 328.93 275.504 324.329 269.828 324.329C264.152 324.329 259.551 328.93 259.551 334.605C259.551 340.281 264.152 344.882 269.828 344.882Z" fill="white"/>
<path d="M310.48 344.882C316.156 344.882 320.757 340.281 320.757 334.605C320.757 328.93 316.156 324.329 310.48 324.329C304.804 324.329 300.203 328.93 300.203 334.605C300.203 340.281 304.804 344.882 310.48 344.882Z" fill="white"/>
<path d="M269.828 421.209C275.504 421.209 280.105 416.608 280.105 410.932C280.105 405.256 275.504 400.655 269.828 400.655C264.152 400.655 259.551 405.256 259.551 410.932C259.551 416.608 264.152 421.209 269.828 421.209Z" fill="white"/>
<path d="M310.48 421.209C316.156 421.209 320.757 416.608 320.757 410.932C320.757 405.256 316.156 400.655 310.48 400.655C304.804 400.655 300.203 405.256 300.203 410.932C300.203 416.608 304.804 421.209 310.48 421.209Z" fill="white"/>
<path d="M476.304 234.163C476.304 222.578 466.879 213.152 455.293 213.152H403.158C403.352 209.511 403.451 205.856 403.451 202.225C403.451 148.476 382.52 97.9435 344.513 59.9377C306.507 21.931 255.975 1 202.225 1C148.477 1 97.9444 21.931 59.9387 59.9377C21.931 97.9435 1 148.476 1 202.225C1 255.973 21.931 306.506 59.9368 344.512C97.9435 382.519 148.476 403.45 202.225 403.45C209.938 403.45 217.677 403.008 225.325 402.135V435.047C225.325 446.631 234.75 456.057 246.336 456.057H455.293C466.878 456.057 476.304 446.632 476.304 435.047V386.816C476.304 381.42 474.259 376.493 470.903 372.768C474.259 369.043 476.304 364.116 476.304 358.719V310.489C476.304 305.093 474.259 300.166 470.903 296.441C474.259 292.716 476.304 287.789 476.304 282.392V234.163ZM462.379 234.163V282.393C462.379 286.3 459.201 289.479 455.293 289.479H246.336C242.429 289.479 239.25 286.3 239.25 282.393V234.163C239.25 230.255 242.429 227.077 246.336 227.077H395.527C395.649 227.08 395.771 227.08 395.892 227.077H455.293C459.201 227.078 462.379 230.255 462.379 234.163ZM462.379 310.49V358.72C462.379 362.628 459.201 365.806 455.293 365.806H246.336C242.429 365.806 239.25 362.628 239.25 358.72V310.49C239.25 306.583 242.429 303.404 246.336 303.404H455.293C459.201 303.404 462.379 306.583 462.379 310.49ZM246.336 213.153C234.751 213.153 225.325 222.578 225.325 234.164V282.394C225.325 287.79 227.37 292.717 230.726 296.442C227.37 300.167 225.325 305.094 225.325 310.491V358.721C225.325 364.118 227.37 369.044 230.726 372.77C228.744 374.97 227.219 377.59 226.303 380.478C218.455 386.484 210.364 389.526 202.225 389.526C182.149 389.526 162.006 370.285 146.957 336.74C138.354 317.559 131.82 294.949 127.607 270.262H204.56C208.406 270.262 211.523 267.145 211.523 263.299C211.523 259.453 208.406 256.337 204.56 256.337H125.507C123.225 239.007 122.045 220.826 122.045 202.225C122.045 183.625 123.226 165.444 125.507 148.114H278.893C280.777 162.259 281.947 177.081 282.295 192.347C282.382 196.191 285.598 199.215 289.414 199.149C293.259 199.061 296.304 195.874 296.216 192.03C295.873 177.024 294.774 162.31 292.966 148.113H381.559C386.74 165.251 389.527 183.418 389.527 202.225C389.527 205.857 389.421 209.514 389.212 213.152H246.336V213.153ZM14.9249 202.225C14.9249 183.418 17.7118 165.251 22.8928 148.113H111.475C109.263 165.51 108.12 183.679 108.12 202.225C108.12 220.77 109.263 238.939 111.475 256.336H22.8928C17.7118 239.198 14.9249 221.031 14.9249 202.225ZM202.225 14.924C235.418 14.924 264.85 64.8337 276.772 134.188H127.607C131.821 109.5 138.354 86.8899 146.957 67.7097C162.007 34.1636 182.15 14.924 202.225 14.924ZM376.738 134.188H290.937C286.283 105.869 278.718 80.0342 268.644 58.626C260.834 42.0303 251.807 28.7645 241.95 19.1637C303.667 32.5446 354.144 76.4341 376.738 134.188ZM162.45 19.1748C151.957 29.4134 142.411 43.8238 134.253 62.0107C124.912 82.834 117.898 107.414 113.5 134.188H27.7127C50.3017 76.449 100.757 32.5678 162.45 19.1748ZM27.7127 270.261H113.5C117.897 297.036 124.912 321.616 134.253 342.439C142.411 360.626 151.957 375.037 162.45 385.275C100.757 371.882 50.3008 328 27.7127 270.261ZM462.379 435.048C462.379 438.955 459.201 442.133 455.293 442.133H246.336C242.429 442.133 239.25 438.955 239.25 435.048V394.262C239.251 394.209 239.251 394.156 239.25 394.104V386.817C239.25 382.91 242.429 379.731 246.336 379.731H455.293C459.201 379.731 462.379 382.91 462.379 386.817V435.048Z" fill="#1890FF" stroke="#1890FF" stroke-width="0.2"/>
</g>
</svg>
