<svg width="139" height="24" viewBox="0 0 139 24" fill="none" xmlns="http://www.w3.org/2000/svg">
<path d="M38.2894 16.496C39.0148 16.496 39.5428 16.3733 39.8734 16.128C40.2041 15.8827 40.3694 15.536 40.3694 15.088C40.3694 14.8213 40.3108 14.592 40.1934 14.4C40.0868 14.208 39.9268 14.0373 39.7134 13.888C39.5108 13.728 39.2601 13.584 38.9614 13.456C38.6628 13.3173 38.3214 13.184 37.9374 13.056C37.5534 12.9173 37.1801 12.768 36.8174 12.608C36.4654 12.4373 36.1508 12.2293 35.8734 11.984C35.6068 11.7387 35.3881 11.4453 35.2174 11.104C35.0574 10.7627 34.9774 10.352 34.9774 9.872C34.9774 8.86933 35.3241 8.08533 36.0174 7.52C36.7108 6.944 37.6548 6.656 38.8494 6.656C39.5428 6.656 40.1561 6.736 40.6894 6.896C41.2334 7.04533 41.6601 7.21067 41.9694 7.392L41.3454 9.024C40.9828 8.82133 40.5828 8.66667 40.1454 8.56C39.7188 8.45333 39.2761 8.4 38.8174 8.4C38.2734 8.4 37.8468 8.512 37.5374 8.736C37.2388 8.96 37.0894 9.27467 37.0894 9.68C37.0894 9.92533 37.1374 10.1387 37.2334 10.32C37.3401 10.4907 37.4841 10.6453 37.6654 10.784C37.8574 10.9227 38.0761 11.0507 38.3214 11.168C38.5774 11.2853 38.8548 11.3973 39.1534 11.504C39.6761 11.696 40.1401 11.8933 40.5454 12.096C40.9614 12.288 41.3081 12.5227 41.5854 12.8C41.8734 13.0667 42.0921 13.3867 42.2414 13.76C42.3908 14.1227 42.4654 14.5653 42.4654 15.088C42.4654 16.0907 42.1081 16.8693 41.3934 17.424C40.6894 17.968 39.6548 18.24 38.2894 18.24C37.8308 18.24 37.4094 18.208 37.0254 18.144C36.6521 18.0907 36.3161 18.0213 36.0174 17.936C35.7294 17.8507 35.4788 17.7653 35.2654 17.68C35.0521 17.584 34.8814 17.4987 34.7534 17.424L35.3454 15.776C35.6334 15.936 36.0228 16.096 36.5134 16.256C37.0041 16.416 37.5961 16.496 38.2894 16.496ZM43.6821 13.856C43.6821 13.12 43.7887 12.4747 44.0021 11.92C44.2261 11.3653 44.5194 10.9067 44.8821 10.544C45.2447 10.1707 45.6607 9.89333 46.1301 9.712C46.5994 9.52 47.0794 9.424 47.5701 9.424C48.7221 9.424 49.6181 9.78133 50.2581 10.496C50.9087 11.2107 51.2341 12.2773 51.2341 13.696C51.2341 13.8027 51.2287 13.9253 51.2181 14.064C51.2181 14.192 51.2127 14.3093 51.2021 14.416H45.6821C45.7354 15.088 45.9701 15.6107 46.3861 15.984C46.8127 16.3467 47.4261 16.528 48.2261 16.528C48.6954 16.528 49.1221 16.4853 49.5061 16.4C49.9007 16.3147 50.2101 16.224 50.4341 16.128L50.6901 17.712C50.5834 17.7653 50.4341 17.824 50.2421 17.888C50.0607 17.9413 49.8474 17.9893 49.6021 18.032C49.3674 18.0853 49.1114 18.128 48.8341 18.16C48.5567 18.192 48.2741 18.208 47.9861 18.208C47.2501 18.208 46.6101 18.1013 46.0661 17.888C45.5221 17.664 45.0741 17.36 44.7221 16.976C44.3701 16.5813 44.1087 16.1227 43.9381 15.6C43.7674 15.0667 43.6821 14.4853 43.6821 13.856ZM49.2981 12.992C49.2981 12.7253 49.2607 12.4747 49.1861 12.24C49.1114 11.9947 48.9994 11.7867 48.8501 11.616C48.7114 11.4347 48.5354 11.296 48.3221 11.2C48.1194 11.0933 47.8741 11.04 47.5861 11.04C47.2874 11.04 47.0261 11.0987 46.8021 11.216C46.5781 11.3227 46.3861 11.4667 46.2261 11.648C46.0767 11.8293 45.9594 12.0373 45.8741 12.272C45.7887 12.5067 45.7301 12.7467 45.6981 12.992H49.2981ZM58.0547 11.376C57.8947 11.3227 57.6707 11.2693 57.3827 11.216C57.1054 11.152 56.78 11.12 56.4067 11.12C56.1934 11.12 55.964 11.1413 55.7187 11.184C55.484 11.2267 55.3187 11.264 55.2227 11.296V18H53.2867V10.032C53.66 9.89333 54.124 9.76533 54.6787 9.648C55.244 9.52 55.868 9.456 56.5507 9.456C56.6787 9.456 56.828 9.46667 56.9987 9.488C57.1694 9.49867 57.34 9.52 57.5107 9.552C57.6814 9.57333 57.8467 9.60533 58.0067 9.648C58.1667 9.68 58.2947 9.712 58.3907 9.744L58.0547 11.376ZM62.1651 18C61.6317 16.9013 61.0824 15.6427 60.5171 14.224C59.9624 12.7947 59.4557 11.264 58.9971 9.632H61.0611C61.1784 10.1013 61.3117 10.608 61.4611 11.152C61.6211 11.6853 61.7864 12.224 61.9571 12.768C62.1384 13.3013 62.3197 13.824 62.5011 14.336C62.6931 14.8373 62.8691 15.2907 63.0291 15.696C63.1891 15.2907 63.3597 14.8373 63.5411 14.336C63.7224 13.824 63.8984 13.3013 64.0691 12.768C64.2504 12.224 64.4211 11.6853 64.5811 11.152C64.7411 10.608 64.8797 10.1013 64.9971 9.632H66.9971C66.5384 11.264 66.0264 12.7947 65.4611 14.224C64.9064 15.6427 64.3624 16.9013 63.8291 18H62.1651ZM67.7914 13.856C67.7914 13.12 67.8981 12.4747 68.1114 11.92C68.3354 11.3653 68.6288 10.9067 68.9914 10.544C69.3541 10.1707 69.7701 9.89333 70.2394 9.712C70.7088 9.52 71.1888 9.424 71.6794 9.424C72.8314 9.424 73.7274 9.78133 74.3674 10.496C75.0181 11.2107 75.3434 12.2773 75.3434 13.696C75.3434 13.8027 75.3381 13.9253 75.3274 14.064C75.3274 14.192 75.3221 14.3093 75.3114 14.416H69.7914C69.8448 15.088 70.0794 15.6107 70.4954 15.984C70.9221 16.3467 71.5354 16.528 72.3354 16.528C72.8048 16.528 73.2314 16.4853 73.6154 16.4C74.0101 16.3147 74.3194 16.224 74.5434 16.128L74.7994 17.712C74.6928 17.7653 74.5434 17.824 74.3514 17.888C74.1701 17.9413 73.9568 17.9893 73.7114 18.032C73.4768 18.0853 73.2208 18.128 72.9434 18.16C72.6661 18.192 72.3834 18.208 72.0954 18.208C71.3594 18.208 70.7194 18.1013 70.1754 17.888C69.6314 17.664 69.1834 17.36 68.8314 16.976C68.4794 16.5813 68.2181 16.1227 68.0474 15.6C67.8768 15.0667 67.7914 14.4853 67.7914 13.856ZM73.4074 12.992C73.4074 12.7253 73.3701 12.4747 73.2954 12.24C73.2208 11.9947 73.1088 11.7867 72.9594 11.616C72.8208 11.4347 72.6448 11.296 72.4314 11.2C72.2288 11.0933 71.9834 11.04 71.6954 11.04C71.3968 11.04 71.1354 11.0987 70.9114 11.216C70.6874 11.3227 70.4954 11.4667 70.3354 11.648C70.1861 11.8293 70.0688 12.0373 69.9834 12.272C69.8981 12.5067 69.8394 12.7467 69.8074 12.992H73.4074ZM82.1641 11.376C82.0041 11.3227 81.7801 11.2693 81.4921 11.216C81.2147 11.152 80.8894 11.12 80.5161 11.12C80.3027 11.12 80.0734 11.1413 79.8281 11.184C79.5934 11.2267 79.4281 11.264 79.3321 11.296V18H77.3961V10.032C77.7694 9.89333 78.2334 9.76533 78.7881 9.648C79.3534 9.52 79.9774 9.456 80.6601 9.456C80.7881 9.456 80.9374 9.46667 81.1081 9.488C81.2787 9.49867 81.4494 9.52 81.6201 9.552C81.7907 9.57333 81.9561 9.60533 82.1161 9.648C82.2761 9.68 82.4041 9.712 82.5001 9.744L82.1641 11.376ZM86.6332 16.496C87.3585 16.496 87.8865 16.3733 88.2172 16.128C88.5479 15.8827 88.7132 15.536 88.7132 15.088C88.7132 14.8213 88.6545 14.592 88.5372 14.4C88.4305 14.208 88.2705 14.0373 88.0572 13.888C87.8545 13.728 87.6039 13.584 87.3052 13.456C87.0065 13.3173 86.6652 13.184 86.2812 13.056C85.8972 12.9173 85.5239 12.768 85.1612 12.608C84.8092 12.4373 84.4945 12.2293 84.2172 11.984C83.9505 11.7387 83.7319 11.4453 83.5612 11.104C83.4012 10.7627 83.3212 10.352 83.3212 9.872C83.3212 8.86933 83.6679 8.08533 84.3612 7.52C85.0545 6.944 85.9985 6.656 87.1932 6.656C87.8865 6.656 88.4999 6.736 89.0332 6.896C89.5772 7.04533 90.0039 7.21067 90.3132 7.392L89.6892 9.024C89.3265 8.82133 88.9265 8.66667 88.4892 8.56C88.0625 8.45333 87.6199 8.4 87.1612 8.4C86.6172 8.4 86.1905 8.512 85.8812 8.736C85.5825 8.96 85.4332 9.27467 85.4332 9.68C85.4332 9.92533 85.4812 10.1387 85.5772 10.32C85.6839 10.4907 85.8279 10.6453 86.0092 10.784C86.2012 10.9227 86.4199 11.0507 86.6652 11.168C86.9212 11.2853 87.1985 11.3973 87.4972 11.504C88.0199 11.696 88.4839 11.8933 88.8892 12.096C89.3052 12.288 89.6519 12.5227 89.9292 12.8C90.2172 13.0667 90.4359 13.3867 90.5852 13.76C90.7345 14.1227 90.8092 14.5653 90.8092 15.088C90.8092 16.0907 90.4519 16.8693 89.7372 17.424C89.0332 17.968 87.9985 18.24 86.6332 18.24C86.1745 18.24 85.7532 18.208 85.3692 18.144C84.9959 18.0907 84.6599 18.0213 84.3612 17.936C84.0732 17.8507 83.8225 17.7653 83.6092 17.68C83.3959 17.584 83.2252 17.4987 83.0972 17.424L83.6892 15.776C83.9772 15.936 84.3665 16.096 84.8572 16.256C85.3479 16.416 85.9399 16.496 86.6332 16.496ZM92.4898 18V5.904L94.4258 5.584V9.728C94.6391 9.65333 94.8845 9.58933 95.1618 9.536C95.4498 9.48267 95.7325 9.456 96.0098 9.456C96.6818 9.456 97.2365 9.552 97.6738 9.744C98.1218 9.92533 98.4791 10.1867 98.7458 10.528C99.0125 10.8587 99.1991 11.2587 99.3058 11.728C99.4231 12.1973 99.4818 12.72 99.4818 13.296V18H97.5458V13.6C97.5458 13.152 97.5138 12.7733 97.4498 12.464C97.3965 12.144 97.3005 11.888 97.1618 11.696C97.0338 11.4933 96.8578 11.3493 96.6338 11.264C96.4098 11.168 96.1325 11.12 95.8018 11.12C95.5458 11.12 95.2845 11.1467 95.0178 11.2C94.7511 11.2533 94.5538 11.3013 94.4258 11.344V18H92.4898ZM104.746 16.64C105.344 16.64 105.797 16.608 106.106 16.544V14.4C106 14.368 105.845 14.336 105.642 14.304C105.44 14.272 105.216 14.256 104.97 14.256C104.757 14.256 104.538 14.272 104.314 14.304C104.101 14.336 103.904 14.3947 103.722 14.48C103.552 14.5653 103.413 14.688 103.306 14.848C103.2 14.9973 103.146 15.1893 103.146 15.424C103.146 15.8827 103.29 16.2027 103.578 16.384C103.866 16.5547 104.256 16.64 104.746 16.64ZM104.586 9.424C105.226 9.424 105.765 9.504 106.202 9.664C106.64 9.824 106.986 10.048 107.242 10.336C107.509 10.624 107.696 10.976 107.802 11.392C107.92 11.7973 107.978 12.2453 107.978 12.736V17.808C107.68 17.872 107.226 17.9467 106.618 18.032C106.021 18.128 105.344 18.176 104.586 18.176C104.085 18.176 103.626 18.128 103.21 18.032C102.794 17.936 102.437 17.7813 102.138 17.568C101.85 17.3547 101.621 17.0773 101.45 16.736C101.29 16.3947 101.21 15.9733 101.21 15.472C101.21 14.992 101.301 14.5867 101.482 14.256C101.674 13.9253 101.93 13.6587 102.25 13.456C102.57 13.2427 102.938 13.0933 103.354 13.008C103.781 12.912 104.224 12.864 104.682 12.864C104.896 12.864 105.12 12.88 105.354 12.912C105.589 12.9333 105.84 12.976 106.106 13.04V12.72C106.106 12.496 106.08 12.2827 106.026 12.08C105.973 11.8773 105.877 11.7013 105.738 11.552C105.61 11.392 105.434 11.2693 105.21 11.184C104.997 11.0987 104.725 11.056 104.394 11.056C103.946 11.056 103.536 11.088 103.162 11.152C102.789 11.216 102.485 11.2907 102.25 11.376L102.01 9.808C102.256 9.72267 102.613 9.63733 103.082 9.552C103.552 9.46667 104.053 9.424 104.586 9.424ZM115.117 11.376C114.957 11.3227 114.733 11.2693 114.445 11.216C114.168 11.152 113.843 11.12 113.469 11.12C113.256 11.12 113.027 11.1413 112.781 11.184C112.547 11.2267 112.381 11.264 112.285 11.296V18H110.349V10.032C110.723 9.89333 111.187 9.76533 111.741 9.648C112.307 9.52 112.931 9.456 113.613 9.456C113.741 9.456 113.891 9.46667 114.061 9.488C114.232 9.49867 114.403 9.52 114.573 9.552C114.744 9.57333 114.909 9.60533 115.069 9.648C115.229 9.68 115.357 9.712 115.453 9.744L115.117 11.376ZM118.754 18H116.818V9.632H118.754V18ZM118.962 7.184C118.962 7.54667 118.845 7.83467 118.61 8.048C118.376 8.26133 118.098 8.368 117.778 8.368C117.448 8.368 117.165 8.26133 116.93 8.048C116.696 7.83467 116.578 7.54667 116.578 7.184C116.578 6.81067 116.696 6.51733 116.93 6.304C117.165 6.09067 117.448 5.984 117.778 5.984C118.098 5.984 118.376 6.09067 118.61 6.304C118.845 6.51733 118.962 6.81067 118.962 7.184ZM121.224 9.904C121.598 9.79733 122.083 9.696 122.68 9.6C123.278 9.504 123.939 9.456 124.664 9.456C125.347 9.456 125.918 9.552 126.376 9.744C126.835 9.92533 127.198 10.1867 127.464 10.528C127.742 10.8587 127.934 11.264 128.04 11.744C128.158 12.2133 128.216 12.7307 128.216 13.296V18H126.28V13.6C126.28 13.152 126.248 12.7733 126.184 12.464C126.131 12.144 126.035 11.888 125.896 11.696C125.768 11.4933 125.587 11.3493 125.352 11.264C125.128 11.168 124.851 11.12 124.52 11.12C124.275 11.12 124.019 11.136 123.752 11.168C123.486 11.2 123.288 11.2267 123.16 11.248V18H121.224V9.904ZM132.104 13.6C132.104 14.4213 132.28 15.024 132.632 15.408C132.994 15.7813 133.458 15.968 134.024 15.968C134.333 15.968 134.621 15.9253 134.888 15.84C135.165 15.7547 135.389 15.6533 135.56 15.536V11.2C135.421 11.168 135.25 11.1413 135.048 11.12C134.845 11.088 134.589 11.072 134.28 11.072C133.576 11.072 133.037 11.3067 132.664 11.776C132.29 12.2347 132.104 12.8427 132.104 13.6ZM137.496 17.152C137.496 18.4853 137.154 19.4613 136.472 20.08C135.8 20.6987 134.765 21.008 133.368 21.008C132.856 21.008 132.354 20.9653 131.864 20.88C131.384 20.7947 130.946 20.6827 130.552 20.544L130.904 18.896C131.234 19.0347 131.608 19.1467 132.024 19.232C132.45 19.3173 132.909 19.36 133.4 19.36C134.178 19.36 134.733 19.2 135.064 18.88C135.394 18.56 135.56 18.0853 135.56 17.456V17.136C135.368 17.232 135.112 17.328 134.792 17.424C134.482 17.52 134.125 17.568 133.72 17.568C133.186 17.568 132.696 17.4827 132.248 17.312C131.81 17.1413 131.432 16.8907 131.112 16.56C130.802 16.2293 130.557 15.8187 130.376 15.328C130.205 14.8267 130.12 14.2507 130.12 13.6C130.12 12.992 130.21 12.432 130.392 11.92C130.584 11.408 130.856 10.9707 131.208 10.608C131.57 10.2453 132.008 9.96267 132.52 9.76C133.032 9.55733 133.613 9.456 134.264 9.456C134.893 9.456 135.49 9.504 136.056 9.6C136.621 9.696 137.101 9.79733 137.496 9.904V17.152Z" fill="#1890FF"/>
<path d="M12 0C17.2871 0 21.7579 2.18288 21.9092 4.79593C21.7579 7.40874 17.2871 9.59217 12 9.59217C6.71275 9.59217 2.24237 7.40922 2.09084 4.79593C2.24237 2.18288 6.71275 0 12 0Z" fill="#1890FF"/>
<path d="M21.9234 19.0687C21.9234 21.7417 17.3794 24 12 24C6.62063 24 2.07658 21.7417 2.07658 19.0687V16.7106C3.7755 18.7505 7.53295 20.1379 12 20.1379C16.4671 20.1379 20.2244 18.7501 21.9234 16.7106V19.0687Z" fill="#1890FF"/>
<path d="M21.9234 14.2326C21.9234 16.9055 17.3794 19.1639 12 19.1639C6.62063 19.1639 2.07658 16.9055 2.07658 14.2326V11.7765C3.7755 13.8159 7.53295 15.2029 12 15.2029C16.4671 15.2029 20.2244 13.815 21.9234 11.7765V14.2326Z" fill="#1890FF"/>
<path d="M21.9234 9.29744C21.9234 11.9705 17.3794 14.2287 12 14.2287C6.62063 14.2287 2.07658 11.9705 2.07658 9.29744V7.13936C3.7755 9.17927 7.53295 10.5657 12 10.5657C16.4671 10.5657 20.2244 9.17879 21.9234 7.13936V9.29744Z" fill="#1890FF"/>
</svg>
