<svg width="90" height="90" viewBox="0 0 90 90" fill="none" xmlns="http://www.w3.org/2000/svg">
<rect width="90" height="90" rx="10" fill="#C7EBFF"/>
<g clip-path="url(#clip0)">
<path d="M39.5606 52.6172L35.1367 57.0411C34.5947 57.5828 33.6868 57.6709 33.0566 57.0411C32.4706 56.4842 32.4706 55.5469 33.0566 54.9606L37.4805 50.537C38.0664 49.9511 39.0037 49.9511 39.5606 50.537C40.1466 51.0936 40.1466 52.0313 39.5606 52.6172Z" fill="#07485E"/>
<path d="M39.5606 52.6172L35.1367 57.0411C34.5947 57.5828 33.6868 57.6709 33.0566 57.0411L39.5606 50.537C40.1466 51.0936 40.1466 52.0313 39.5606 52.6172Z" fill="#03232E"/>
<path d="M64.4042 25.6934C60.9763 22.2362 56.2011 20.0977 50.957 20.0977C40.4685 20.0977 31.9141 28.6521 31.9141 39.1406C31.9141 44.3847 34.0526 49.1599 37.5098 52.5878C40.9373 56.0447 45.713 58.1836 50.957 58.1836C61.4455 58.1836 70 49.6288 70 39.1406C70 33.8966 67.8615 29.1209 64.4042 25.6934Z" fill="#B4D2D7"/>
<path d="M70 39.1406C70 49.6287 61.4455 58.1836 50.957 58.1836C45.713 58.1836 40.9377 56.0447 37.5098 52.5878L64.4042 25.6934C67.8615 29.1209 70 33.8965 70 39.1406Z" fill="#87A0AF"/>
<path d="M67.0703 39.1406C67.0703 48.0174 59.8342 55.2539 50.957 55.2539C46.5038 55.2539 42.4903 53.4373 39.5606 50.537C36.6603 47.6073 34.8438 43.5935 34.8438 39.1406C34.8438 30.2634 42.0798 23.0273 50.957 23.0273C55.4103 23.0273 59.4238 24.8439 62.3534 27.7442C65.2538 30.6739 67.0703 34.6873 67.0703 39.1406Z" fill="#FFF5F5"/>
<path d="M67.0703 39.1406C67.0703 48.0174 59.8342 55.2539 50.957 55.2539C46.5038 55.2539 42.4903 53.4373 39.5606 50.537L62.3534 27.7442C65.2538 30.6739 67.0703 34.6873 67.0703 39.1406Z" fill="#EFE2DD"/>
<path d="M32.0899 64.2188L26.6505 69.6582C26.0802 70.2285 25.1693 70.2575 24.5704 69.6582L20.4395 65.5273C19.8535 64.9414 19.8535 64.0331 20.4395 63.4471L25.8788 58.0078L29.7462 60.3515L29.7755 60.3809L32.0899 64.2188Z" fill="#0B799D"/>
<path d="M32.0899 64.2188L26.6505 69.6582C26.0802 70.2285 25.1693 70.2575 24.5704 69.6582L22.5196 67.6074L29.7462 60.3515L29.7755 60.3809L32.0899 64.2188Z" fill="#07485E"/>
<path d="M37.1875 59.1212L32.0899 64.2188L25.8788 58.0077L30.9764 52.9102C31.5623 52.3242 32.4706 52.3242 33.0566 52.9102L37.1875 57.0411C37.7734 57.627 37.7734 58.5353 37.1875 59.1212Z" fill="#B4D2D7"/>
<path d="M37.1875 59.1212L32.0899 64.2188L28.9844 61.1133L35.1363 54.9903L37.1871 57.0411C37.7734 57.627 37.7734 58.5353 37.1875 59.1212Z" fill="#87A0AF"/>
<path d="M54.531 37.5293C54.3262 37.617 54.1209 37.6758 53.8867 37.6758H43.6328C42.0146 37.6758 40.7031 36.3643 40.7031 34.7461V30.3516C40.7031 29.5425 41.3589 28.8867 42.168 28.8867H50.957C51.5136 28.8867 52.0118 29.2091 52.2754 29.7069L55.2051 35.5663C55.5568 36.2693 55.2634 37.1486 54.531 37.5293Z" fill="#FF9F22"/>
<path d="M59.7461 34.7461H40.7031V47.9297C40.7031 48.3398 40.879 48.6915 41.1132 48.9845C41.4062 49.2187 41.7579 49.3945 42.168 49.3945H59.7461C60.5666 49.3945 61.2109 48.7498 61.2109 47.9297V36.2109C61.2109 35.3904 60.5663 34.7461 59.7461 34.7461Z" fill="#0B799D"/>
<path d="M61.2109 36.2109V47.9297C61.2109 48.7498 60.5666 49.3945 59.7461 49.3945H42.168C41.7579 49.3945 41.4062 49.2187 41.1132 48.9845L55.3516 34.7461H59.7461C60.5663 34.7461 61.2109 35.3904 61.2109 36.2109Z" fill="#07485E"/>
<path d="M49.4922 42.0703C49.4922 42.8905 48.8479 43.5352 48.0273 43.5352C47.6173 43.5352 47.2655 43.3593 46.9726 43.1251C46.7384 42.8321 46.5625 42.4804 46.5625 42.0703C46.5625 41.2498 47.2068 40.6055 48.0273 40.6055C48.4374 40.6055 48.7891 40.7813 49.0821 41.0155C49.3163 41.3085 49.4922 41.6602 49.4922 42.0703Z" fill="#E1EBF0"/>
<path d="M49.4922 42.0703C49.4922 42.8905 48.8479 43.5352 48.0273 43.5352C47.6173 43.5352 47.2655 43.3593 46.9726 43.1251L49.0821 41.0156C49.3163 41.3085 49.4922 41.6602 49.4922 42.0703Z" fill="#B4D2D7"/>
<path d="M55.3516 42.0703C55.3516 42.8794 54.6958 43.5352 53.8867 43.5352C53.0776 43.5352 52.4219 42.8794 52.4219 42.0703C52.4219 41.2612 53.0776 40.6055 53.8867 40.6055C54.6958 40.6055 55.3516 41.2612 55.3516 42.0703Z" fill="#B4D2D7"/>
</g>
<defs>
<clipPath id="clip0">
<rect width="50" height="50" fill="white" transform="translate(20 20)"/>
</clipPath>
</defs>
</svg>
