<svg width="90" height="90" viewBox="0 0 90 90" fill="none" xmlns="http://www.w3.org/2000/svg">
<rect width="90" height="90" rx="10" fill="#FFFDC7"/>
<path d="M46.4648 45.0977V50.957C46.4648 51.7776 45.8205 52.4219 45 52.4219C44.1795 52.4219 43.5352 51.7776 43.5352 50.957V45.0977C43.5352 44.2771 44.1795 43.6328 45 43.6328C45.8205 43.6328 46.4648 44.2771 46.4648 45.0977Z" fill="#BEEBFA"/>
<path d="M46.4648 45.0977V50.957C46.4648 51.7776 45.8205 52.4219 45 52.4219V43.6328C45.8205 43.6328 46.4648 44.2771 46.4648 45.0977Z" fill="#7ED8F6"/>
<path d="M45 49.4922C42.5681 49.4922 40.6055 51.4548 40.6055 53.8867V59.7461C40.6055 60.5666 41.2498 61.2109 42.0703 61.2109H43.5352V53.8867C43.5352 53.0662 44.1795 52.4219 45 52.4219C45.8205 52.4219 46.4648 53.0662 46.4648 53.8867V61.2109H47.9297C48.7502 61.2109 49.3945 60.5666 49.3945 59.7461V53.8867C49.3945 51.4548 47.4319 49.4922 45 49.4922Z" fill="#07485E"/>
<path d="M49.3945 53.8867V59.7461C49.3945 60.5666 48.7502 61.2109 47.9297 61.2109H46.4648V53.8867C46.4648 53.0662 45.8205 52.4219 45 52.4219V49.4922C47.4319 49.4922 49.3945 51.4548 49.3945 53.8867Z" fill="#03232E"/>
<path d="M39.1406 64.1406H21.4648C20.6554 64.1406 20 63.4853 20 62.6758C20 61.8663 20.6554 61.2109 21.4648 61.2109H39.1406C39.9501 61.2109 40.6055 61.8663 40.6055 62.6758C40.6055 63.4853 39.9501 64.1406 39.1406 64.1406Z" fill="#BEEBFA"/>
<path d="M68.5352 64.1406H50.8594C50.0499 64.1406 49.3945 63.4853 49.3945 62.6758C49.3945 61.8663 50.0499 61.2109 50.8594 61.2109H68.5352C69.3446 61.2109 70 61.8663 70 62.6758C70 63.4853 69.3446 64.1406 68.5352 64.1406Z" fill="#7ED8F6"/>
<path d="M62.5781 20H27.4219C26.6013 20 25.957 20.6443 25.957 21.4648V33.1836C25.957 34.0041 26.6013 34.6484 27.4219 34.6484H62.5781C63.3987 34.6484 64.043 34.0041 64.043 33.1836V21.4648C64.043 20.6443 63.3987 20 62.5781 20Z" fill="#0B799D"/>
<path d="M64.043 21.4648V33.1836C64.043 34.0041 63.3987 34.6484 62.5781 34.6484H45V20H62.5781C63.3987 20 64.043 20.6443 64.043 21.4648Z" fill="#07485E"/>
<path d="M64.043 33.1836V44.9023C64.043 45.7229 63.3987 46.3672 62.5781 46.3672H27.4219C26.6013 46.3672 25.957 45.7229 25.957 44.9023V33.1836H64.043Z" fill="#07485E"/>
<path d="M64.043 33.1836V44.9023C64.043 45.7229 63.3987 46.3672 62.5781 46.3672H45V33.1836H64.043Z" fill="#03232E"/>
<path d="M34.7461 27.3242C34.7461 28.1333 34.0903 28.7891 33.2812 28.7891C32.4722 28.7891 31.8164 28.1333 31.8164 27.3242C31.8164 26.5151 32.4722 25.8594 33.2812 25.8594C34.0903 25.8594 34.7461 26.5151 34.7461 27.3242Z" fill="#6FE8D5"/>
<path d="M40.6055 27.3242C40.6055 28.1333 39.9497 28.7891 39.1406 28.7891C38.3315 28.7891 37.6758 28.1333 37.6758 27.3242C37.6758 26.5151 38.3315 25.8594 39.1406 25.8594C39.9497 25.8594 40.6055 26.5151 40.6055 27.3242Z" fill="#6FE8D5"/>
<path d="M34.7461 39.043C34.7461 39.8521 34.0903 40.5078 33.2812 40.5078C32.4722 40.5078 31.8164 39.8521 31.8164 39.043C31.8164 38.2339 32.4722 37.5781 33.2812 37.5781C34.0903 37.5781 34.7461 38.2339 34.7461 39.043Z" fill="#6FE8D5"/>
<path d="M40.6055 39.043C40.6055 39.8521 39.9497 40.5078 39.1406 40.5078C38.3315 40.5078 37.6758 39.8521 37.6758 39.043C37.6758 38.2339 38.3315 37.5781 39.1406 37.5781C39.9497 37.5781 40.6055 38.2339 40.6055 39.043Z" fill="#6FE8D5"/>
<path d="M50.8594 58.2812H39.1406C38.3201 58.2812 37.6758 58.9256 37.6758 59.7461V68.5352C37.6758 69.3557 38.3201 70 39.1406 70H50.8594C51.6799 70 52.3242 69.3557 52.3242 68.5352V59.7461C52.3242 58.9256 51.6799 58.2812 50.8594 58.2812Z" fill="#FDBF00"/>
<path d="M52.3242 59.7461V68.5352C52.3242 69.3557 51.6799 70 50.8594 70H45V58.2812H50.8594C51.6799 58.2812 52.3242 58.9256 52.3242 59.7461Z" fill="#FF9100"/>
<path d="M46.4648 27.3242C46.4648 28.1448 45.8205 28.7891 45 28.7891C44.1795 28.7891 43.5352 28.1448 43.5352 27.3242C43.5352 26.5037 44.1795 25.8594 45 25.8594C45.8205 25.8594 46.4648 26.5037 46.4648 27.3242Z" fill="#6FE8D5"/>
<path d="M46.4648 39.043C46.4648 39.8635 45.8205 40.5078 45 40.5078C44.1795 40.5078 43.5352 39.8635 43.5352 39.043C43.5352 38.2224 44.1795 37.5781 45 37.5781C45.8205 37.5781 46.4648 38.2224 46.4648 39.043Z" fill="#6FE8D5"/>
<path d="M46.4648 39.043C46.4648 39.8635 45.8205 40.5078 45 40.5078V37.5781C45.8205 37.5781 46.4648 38.2224 46.4648 39.043Z" fill="#15CCC2"/>
<path d="M45 28.7891V25.8594C45.8205 25.8594 46.4648 26.5037 46.4648 27.3242C46.4648 28.1448 45.8205 28.7891 45 28.7891Z" fill="#15CCC2"/>
</svg>
