<svg width="90" height="90" viewBox="0 0 90 90" fill="none" xmlns="http://www.w3.org/2000/svg">
<rect width="90" height="90" rx="10" fill="#FFECC7"/>
<g clip-path="url(#clip0)">
<path d="M64.043 44.5701C64.043 43.8964 63.6035 43.3105 62.9298 43.1346L53.4667 40.7325C53.3496 40.7031 53.2325 40.6738 53.086 40.6738H49.3945L47.9297 42.1386L46.4648 40.6738H37.6758L36.2697 42.1386L34.7461 40.6738H21.4648C20.6443 40.6738 20 41.3185 20 42.1386V49.4628L21.0548 51.0154L20 52.3925V58.2519L21.0548 59.8045L20 61.1816V68.5058C20 69.326 20.6443 69.9706 21.4648 69.9706H34.7461L36.2697 68.6817L37.6758 69.9706H46.4648L47.8709 68.6817L49.3945 69.9706H62.5781C63.3987 69.9706 64.043 69.326 64.043 68.5058V61.1816L62.6369 59.5409L64.043 58.2519V52.3925L62.6369 50.8689L64.043 49.4628V44.5701Z" fill="#FDBF00"/>
<path d="M64.043 49.4628L62.6369 50.8689L64.043 52.3925V58.2519L62.6369 59.5409L64.043 61.1816V68.5058C64.043 69.326 63.3987 69.9706 62.5781 69.9706H42.0703V40.6738H46.4648L47.9297 42.1386L49.3945 40.6738H53.086C53.2325 40.6738 53.3496 40.7031 53.4667 40.7325L62.9295 43.1346C63.6031 43.3105 64.043 43.8964 64.043 44.5701V49.4628Z" fill="#FF9100"/>
<path d="M67.9492 29.9316L60.918 20.5566C60.625 20.2048 60.1855 20 59.7461 20C59.3066 20 58.8672 20.2048 58.5742 20.5566L51.543 29.9316C50.1952 31.7188 49.4922 33.8573 49.4922 36.0839C49.4922 41.7384 54.0919 46.3378 59.7461 46.3378C65.4002 46.3378 70 41.7384 70 36.0839C70 33.8573 69.297 31.7188 67.9492 29.9316Z" fill="#FF8859"/>
<path d="M70 36.0839C70 41.7384 65.4002 46.3378 59.7461 46.3378V20C60.1855 20 60.625 20.2048 60.918 20.5566L67.9492 29.9316C69.297 31.7188 70 33.8573 70 36.0839Z" fill="#FF3939"/>
<path d="M64.4336 36.9628L60.918 32.2753C60.625 31.9236 60.1856 31.7188 59.7461 31.7188C59.3063 31.7188 58.8672 31.9236 58.5739 32.2753L55.0586 36.9628C54.2968 37.9882 53.8864 39.1895 53.8864 40.4784C53.8864 43.7011 56.5235 46.3378 59.7457 46.3378C62.9684 46.3378 65.6051 43.7011 65.6051 40.4784C65.6055 39.1895 65.1954 37.9882 64.4336 36.9628Z" fill="#FF3939"/>
<path d="M65.6055 40.4784C65.6055 43.7011 62.9688 46.3378 59.7461 46.3378V31.7188C60.1855 31.7188 60.625 31.9236 60.918 32.2753L64.4336 36.9628C65.1954 37.9882 65.6055 39.1895 65.6055 40.4784Z" fill="#CD0000"/>
<path d="M64.043 52.3925V49.4628H49.3945V40.6738H46.4648V49.4628H37.6758V40.6738H34.7461V49.4628H20V52.3925H28.8867V58.2519H20V61.1816H34.7461V69.9706H37.6758V61.1816H46.4648V69.9706H49.3945V61.1816H64.043V58.2519H55.2539V52.3925H64.043ZM52.3242 58.2519H31.8164V52.3925H52.3242V58.2519Z" fill="#FFDA2D"/>
<path d="M55.2539 52.3925V58.2519H64.043V61.1816H49.3945V69.9706H46.4648V61.1816H42.0703V58.2519H52.3242V52.3925H42.0703V49.4628H46.4648V40.6738H49.3945V49.4628H64.043V52.3925H55.2539Z" fill="#FDBF00"/>
</g>
<defs>
<clipPath id="clip0">
<rect width="50" height="50" fill="white" transform="translate(20 20)"/>
</clipPath>
</defs>
</svg>
