<svg width="90" height="90" viewBox="0 0 90 90" fill="none" xmlns="http://www.w3.org/2000/svg">
<rect width="90" height="90" rx="10" fill="#C7FFE4"/>
<path d="M56.7188 30.2539V47.832L51.8848 65.4102C51.8848 66.2303 51.2111 66.875 50.4199 66.875H25.957C25.1365 66.875 24.4922 66.2303 24.4922 65.4102V21.4648C24.4922 20.6443 25.1365 20 25.957 20H46.4648V30.2539H56.7188Z" fill="#FFF5F5"/>
<path d="M56.7188 30.2539V47.832L51.8848 65.4102C51.8848 66.2303 51.2111 66.875 50.4199 66.875H39.1406V20H46.4648V30.2539H56.7188Z" fill="#EFE2DD"/>
<path d="M47.5005 20.4292C47.2259 20.1545 46.8539 20 46.4648 20V30.2539H56.7188C56.7188 29.8648 56.5643 29.4929 56.2896 29.2182L47.5005 20.4292Z" fill="#CDBFBA"/>
<path d="M64.043 46.5625H46.4648C45.6443 46.5625 45 47.2068 45 48.0273V56.3476C45 62.4999 48.9257 67.9786 54.7851 69.9119C54.9316 69.9706 55.1074 70 55.2539 70C55.4004 70 55.5762 69.9706 55.7227 69.9119C61.5821 67.9786 65.5078 62.4999 65.5078 56.3476V48.0273C65.5078 47.2068 64.8635 46.5625 64.043 46.5625Z" fill="#6FE8D5"/>
<path d="M65.5078 48.0273V56.3476C65.5078 62.4999 61.5821 67.9786 55.7227 69.9119C55.5762 69.9706 55.4004 70 55.2539 70V46.5625H64.043C64.8635 46.5625 65.5078 47.2068 65.5078 48.0273Z" fill="#15CCC2"/>
<path d="M50.8594 36.1133C50.8594 36.9334 50.2151 37.5781 49.3945 37.5781H31.8164C30.9959 37.5781 30.3516 36.9334 30.3516 36.1133C30.3516 35.2927 30.9959 34.6484 31.8164 34.6484H49.3945C50.2151 34.6484 50.8594 35.2927 50.8594 36.1133Z" fill="#EFE2DD"/>
<path d="M50.8594 41.9727C50.8594 42.7928 50.2151 43.4375 49.3945 43.4375H31.8164C30.9959 43.4375 30.3516 42.7928 30.3516 41.9727C30.3516 41.1521 30.9959 40.5078 31.8164 40.5078H49.3945C50.2151 40.5078 50.8594 41.1521 50.8594 41.9727Z" fill="#EFE2DD"/>
<path d="M42.0703 47.832C42.0703 48.6522 41.426 49.2969 40.6055 49.2969H31.8164C30.9959 49.2969 30.3516 48.6522 30.3516 47.832C30.3516 47.0115 30.9959 46.3672 31.8164 46.3672H40.6055C41.426 46.3672 42.0703 47.0115 42.0703 47.832Z" fill="#EFE2DD"/>
<path d="M42.0703 30.2539C42.0703 31.0744 41.426 31.7188 40.6055 31.7188H31.8164C30.9959 31.7188 30.3516 31.0744 30.3516 30.2539C30.3516 29.4334 30.9959 28.7891 31.8164 28.7891H40.6055C41.426 28.7891 42.0703 29.4334 42.0703 30.2539Z" fill="#EFE2DD"/>
<path d="M42.0703 53.6914C42.0703 54.5116 41.426 55.1562 40.6055 55.1562H31.8164C30.9959 55.1562 30.3516 54.5116 30.3516 53.6914C30.3516 52.8709 30.9959 52.2266 31.8164 52.2266H40.6055C41.426 52.2266 42.0703 52.8709 42.0703 53.6914Z" fill="#EFE2DD"/>
<path d="M42.0703 59.5508C42.0703 60.3709 41.426 61.0156 40.6055 61.0156H31.8164C30.9959 61.0156 30.3516 60.3709 30.3516 59.5508C30.3516 58.7302 30.9959 58.0859 31.8164 58.0859H40.6055C41.426 58.0859 42.0703 58.7302 42.0703 59.5508Z" fill="#EFE2DD"/>
<path d="M60.8203 54.7657L56.4258 60.625C56.1622 60.9767 55.7811 61.1816 55.371 61.211H55.2539C54.8732 61.211 54.4921 61.0645 54.2285 60.7715L51.2988 57.8418C50.7129 57.2853 50.7129 56.3476 51.2988 55.791C51.8554 55.2051 52.793 55.2051 53.3496 55.791L55.1074 57.5195L55.2539 57.3146L58.4766 53.0079C58.9748 52.3632 59.8827 52.2461 60.5274 52.7149C61.172 53.2127 61.3185 54.121 60.8203 54.7657Z" fill="#0B799D"/>
<path d="M60.8203 54.7657L56.4258 60.625C56.1622 60.9767 55.7811 61.1816 55.371 61.211H55.2539V57.3143L58.4766 53.0079C58.9748 52.3632 59.8827 52.2461 60.5273 52.7149C61.172 53.2127 61.3185 54.121 60.8203 54.7657Z" fill="#07485E"/>
<path d="M42.0703 59.5508C42.0703 60.3709 41.426 61.0156 40.6055 61.0156H39.1406V58.0859H40.6055C41.426 58.0859 42.0703 58.7302 42.0703 59.5508Z" fill="#CDBFBA"/>
<path d="M42.0703 53.6914C42.0703 54.5116 41.426 55.1562 40.6055 55.1562H39.1406V52.2266H40.6055C41.426 52.2266 42.0703 52.8709 42.0703 53.6914Z" fill="#CDBFBA"/>
<path d="M42.0703 47.832C42.0703 48.6522 41.426 49.2969 40.6055 49.2969H39.1406V46.3672H40.6055C41.426 46.3672 42.0703 47.0115 42.0703 47.832Z" fill="#CDBFBA"/>
<path d="M40.6055 31.7188H39.1406V28.7891H40.6055C41.426 28.7891 42.0703 29.4334 42.0703 30.2539C42.0703 31.0744 41.426 31.7188 40.6055 31.7188Z" fill="#CDBFBA"/>
<path d="M50.8594 41.9727C50.8594 42.7928 50.2151 43.4375 49.3945 43.4375H39.1406V40.5078H49.3945C50.2151 40.5078 50.8594 41.1521 50.8594 41.9727Z" fill="#CDBFBA"/>
<path d="M49.3945 37.5781H39.1406V34.6484H49.3945C50.2151 34.6484 50.8594 35.2927 50.8594 36.1133C50.8594 36.9334 50.2151 37.5781 49.3945 37.5781Z" fill="#CDBFBA"/>
</svg>
